<svg xmlns="http://www.w3.org/2000/svg" viewBox="0 0 1190.55 578.66"><defs><style>.cls-1{fill:#fff;}.cls-2{fill:#1d1d1b;}</style></defs><g id="Logos_-_Info" data-name="Logos - Info"><g id="Blanc"><g id="Texte"><g id="Petit_Texte" data-name="Petit Texte"><path class="cls-1" d="M404.52,521.9H386l-4,20.45h21.19l-.71,3.47h-25.2l9.88-49.46h25l-.71,3.6h-21l-3.7,18.48H405.2Z"/><path class="cls-1" d="M433,517.18l.21,0,13.48-20.86h4.82l-16.64,24.39L444,545.82h-4.79l-7.1-21.47-.21,0-14,21.51H413l17.16-25.07-8.87-24.39h4.82Z"/><path class="cls-1" d="M464.78,525.33l-4.08,20.49h-4l9.89-49.46h14q5.73,0,8.54,4t1.55,10.43q-1.43,7-5.51,10.75a14.71,14.71,0,0,1-10.36,3.75Zm.71-3.56h10.06a9.57,9.57,0,0,0,7.15-3.16,15.57,15.57,0,0,0,3.95-7.71q1-5-.61-8t-6.15-3h-10Z"/><path class="cls-1" d="M502.65,542.35h19l-.72,3.47h-23l9.88-49.46h4.05Z"/><path class="cls-1" d="M564.71,525.33q-2.07,10.26-6.94,15.73a15.38,15.38,0,0,1-11.94,5.47q-6.5,0-10.06-6.13T534.07,525l1.63-8.12q2-10.29,6.8-15.78a14.85,14.85,0,0,1,11.68-5.48q6.63,0,10.3,6.18t1.83,15.39Zm-2.38-8.18q1.63-8.29-.83-13a8.38,8.38,0,0,0-8-4.75q-4.79,0-8.48,4.79a30.23,30.23,0,0,0-5.24,12.7L538.08,525q-1.67,8.36.7,13.11a8,8,0,0,0,7.76,4.75q5,0,8.75-4.78a30.06,30.06,0,0,0,5.41-12.78Z"/><path class="cls-1" d="M584,523.43l-4.45,22.39h-4l9.89-49.43H599q5.91,0,8.76,3.56t1.56,10.11a16.41,16.41,0,0,1-3.24,7.23,14.1,14.1,0,0,1-6,4.38,6.83,6.83,0,0,1,4.26,4.23,13.94,13.94,0,0,1,.26,7.3l-.92,4.66a17.94,17.94,0,0,0-.44,4.2,5.75,5.75,0,0,0,.85,2.94l-.17.82H599.8a5.9,5.9,0,0,1-.71-3.39,26.11,26.11,0,0,1,.58-4.66l.91-4.53q1-4.8-.66-7.3c-1.08-1.67-2.88-2.51-5.42-2.51Zm.72-3.46h9.1a10.85,10.85,0,0,0,7.59-2.74,12.89,12.89,0,0,0,3.92-7.18c.68-3.44.46-6-.67-7.63s-3.25-2.46-6.36-2.46h-9.58Z"/><path class="cls-1" d="M645.79,521.9H627.32l-4.05,20.45h21.2l-.71,3.47H618.55l9.89-49.46h25l-.72,3.6h-21L628,518.44h18.44Z"/><path class="cls-1" d="M665.53,523.43l-4.45,22.39h-4L667,496.39h13.58q5.91,0,8.77,3.56t1.56,10.11a16.64,16.64,0,0,1-3.24,7.23,14.1,14.1,0,0,1-6,4.38,6.83,6.83,0,0,1,4.26,4.23,13.94,13.94,0,0,1,.26,7.3l-.92,4.66a17.41,17.41,0,0,0-.44,4.2,5.65,5.65,0,0,0,.85,2.94l-.17.82h-4.11a6,6,0,0,1-.72-3.39,28.08,28.08,0,0,1,.58-4.66l.92-4.53q.95-4.8-.66-7.3c-1.08-1.67-2.88-2.51-5.42-2.51Zm.71-3.46h9.11a10.89,10.89,0,0,0,7.59-2.74,13,13,0,0,0,3.92-7.18c.68-3.44.45-6-.68-7.63s-3.25-2.46-6.35-2.46h-9.58Z"/><path class="cls-1" d="M725.11,542.35h19l-.72,3.47h-23l9.89-49.46h4Z"/><path class="cls-1" d="M783.6,521.9H765.12l-4,20.45h21.2l-.71,3.47H756.36l9.89-49.46h25l-.72,3.6h-21l-3.7,18.48h18.44Z"/><path class="cls-1" d="M819.24,535.07q.87-4.53-.82-7t-7.1-5.08q-6-2.58-8.52-5.94t-1.23-9.74a13.77,13.77,0,0,1,4.95-8.62,14.45,14.45,0,0,1,9.18-3q5.91,0,9.12,4c2.14,2.68,2.75,6.33,1.82,11h-4q1-5.24-1-8.31T815,499.25a9,9,0,0,0-6,2.34,9.84,9.84,0,0,0-3.34,5.62c-.61,3.08-.4,5.44.64,7.06s3.41,3.31,7.1,5.05q6,2.61,8.59,6t1.33,9.6a13.44,13.44,0,0,1-5.16,8.67,16.06,16.06,0,0,1-9.65,2.9,13.69,13.69,0,0,1-9.73-3.6q-3.86-3.6-2.23-11.18l.1-.17h3.81q-1.29,6.46,1.44,9a10.38,10.38,0,0,0,7.32,2.51,10.13,10.13,0,0,0,6.4-2.33A9.49,9.49,0,0,0,819.24,535.07Z"/><path class="cls-1" d="M863.19,525.33l-4.07,20.49h-4L865,496.36h14q5.75,0,8.54,4t1.55,10.43q-1.43,7-5.5,10.75a14.71,14.71,0,0,1-10.36,3.75Zm.72-3.56H874a9.57,9.57,0,0,0,7.15-3.16,15.66,15.66,0,0,0,4-7.71c.65-3.33.45-6-.62-8s-3.11-3-6.14-3h-10Z"/><path class="cls-1" d="M929.33,525.33q-2.07,10.26-7,15.73a15.38,15.38,0,0,1-11.94,5.47q-6.5,0-10.05-6.13T898.69,525l1.63-8.12q2-10.29,6.79-15.78a14.87,14.87,0,0,1,11.69-5.48q6.62,0,10.29,6.18t1.83,15.39ZM927,517.15q1.62-8.29-.83-13a8.39,8.39,0,0,0-8-4.75q-4.79,0-8.47,4.79a30.11,30.11,0,0,0-5.25,12.7L902.7,525q-1.66,8.36.69,13.11a8,8,0,0,0,7.76,4.75q5,0,8.75-4.78t5.42-12.78Z"/><path class="cls-1" d="M964.48,535.07q.88-4.53-.81-7t-7.1-5.08q-6-2.58-8.53-5.94t-1.22-9.74a13.76,13.76,0,0,1,4.94-8.62,14.48,14.48,0,0,1,9.19-3q5.91,0,9.12,4c2.14,2.68,2.75,6.33,1.82,11h-4q1-5.24-1-8.31t-6.57-3.07a9,9,0,0,0-6,2.34,9.86,9.86,0,0,0-3.35,5.62c-.61,3.08-.39,5.44.65,7.06s3.41,3.31,7.1,5.05q6,2.61,8.59,6t1.33,9.6a13.45,13.45,0,0,1-5.17,8.67,16,16,0,0,1-9.64,2.9,13.67,13.67,0,0,1-9.73-3.6q-3.87-3.6-2.23-11.18l.1-.17h3.81c-.87,4.31-.38,7.3,1.44,9a10.36,10.36,0,0,0,7.32,2.51,10.13,10.13,0,0,0,6.4-2.33A9.47,9.47,0,0,0,964.48,535.07Z"/><path class="cls-1" d="M1004.4,535.07c.59-3,.31-5.36-.82-7s-3.5-3.36-7.1-5.08q-6-2.58-8.52-5.94t-1.23-9.74a13.85,13.85,0,0,1,4.94-8.62,14.48,14.48,0,0,1,9.19-3q5.91,0,9.12,4c2.14,2.68,2.75,6.33,1.82,11h-4q1-5.24-1-8.31t-6.57-3.07a9,9,0,0,0-6,2.34,9.79,9.79,0,0,0-3.34,5.62c-.62,3.08-.4,5.44.64,7.06s3.41,3.31,7.1,5.05q6,2.61,8.59,6t1.33,9.6a13.41,13.41,0,0,1-5.17,8.67,16,16,0,0,1-9.64,2.9,13.69,13.69,0,0,1-9.73-3.6q-3.85-3.6-2.23-11.18l.1-.17h3.81q-1.29,6.46,1.44,9a10.36,10.36,0,0,0,7.32,2.51,10.17,10.17,0,0,0,6.41-2.33A9.52,9.52,0,0,0,1004.4,535.07Z"/><path class="cls-1" d="M1024.57,545.82h-4l9.89-49.46h4Z"/><path class="cls-1" d="M1041.93,545.82l9.89-49.46h11.92c3.8,0,6.69,1.1,8.64,3.31s2.52,5.46,1.68,9.74a14.78,14.78,0,0,1-3.09,6.7,12.09,12.09,0,0,1-5.47,3.81,6.87,6.87,0,0,1,5,4.19,13.12,13.12,0,0,1,.63,8q-1.42,7.09-5.45,10.42a15,15,0,0,1-9.93,3.33ZM1050.7,522l-4,20.35h9.82a9.72,9.72,0,0,0,6.74-2.71,13.29,13.29,0,0,0,3.92-7.48q.93-4.74-.54-7.45c-1-1.8-2.78-2.71-5.43-2.71Zm.71-3.46h9.13a9.09,9.09,0,0,0,6-2.5,12.16,12.16,0,0,0,3.5-6.76c.65-3.29.39-5.66-.8-7.13S1066,500,1063,500h-7.92Z"/><path class="cls-1" d="M1087.89,542.35h18.95l-.71,3.47h-23l9.89-49.46h4Z"/><path class="cls-1" d="M1146.38,521.9H1127.9l-4,20.45h21.2l-.71,3.47h-25.21l9.89-49.46h25l-.72,3.6h-21l-3.7,18.48h18.44Z"/><path class="cls-1" d="M1182,535.07q.87-4.53-.82-7t-7.1-5.08q-6-2.58-8.52-5.94t-1.23-9.74a13.77,13.77,0,0,1,5-8.62,14.45,14.45,0,0,1,9.18-3q5.91,0,9.12,4c2.14,2.68,2.75,6.33,1.82,11h-4q1-5.24-1-8.31t-6.57-3.07a9,9,0,0,0-6,2.34,9.91,9.91,0,0,0-3.35,5.62c-.61,3.08-.39,5.44.65,7.06s3.41,3.31,7.1,5.05q6,2.61,8.59,6t1.33,9.6a13.44,13.44,0,0,1-5.16,8.67,16.06,16.06,0,0,1-9.65,2.9,13.69,13.69,0,0,1-9.73-3.6q-3.86-3.6-2.23-11.18l.1-.17h3.81q-1.29,6.46,1.44,9a10.38,10.38,0,0,0,7.32,2.51,10.13,10.13,0,0,0,6.4-2.33A9.49,9.49,0,0,0,1182,535.07Z"/></g><g id="Gros_Texte" data-name="Gros Texte"><path class="cls-1" d="M190.8,308.6c18.1-62.88,42.87-99.89,51.78-99.89s-23.06,46-23.06,68.64c0,19.56,14.74,37.49,37.13,37.49s58.7-26.44,66.2-54.4h-30c16-45.52,26.77-94.54-14.56-94.54-28.52,0-54.75,29.26-67.68,49.95h-1.79l5.16-25c3.16-16.31-5.56-28.56-27.32-28.56-36.28,0-71.36,64.29-71.36,64.29h36.35c-9.87,12.91-27.43,37.85-42.51,37.85-5.33,0-9.63-4.42-9.63-11.08,0-18.46,21.83-39.48,21.83-58.23,0-22.37-12.18-32.83-35.77-32.83-48.71,0-83.86,54.35-85.54,64.29H41.47c-9.22,17-16.15,38.09-16.15,56.21,0,16.45,14.65,32.08,32,32.08,32.43,0,60.36-22.95,77-42.48L120.62,308.6Z"/><path class="cls-1" d="M696.51,405.74l31-82.05H657.32c-18.09,62.87-42.86,99.89-51.78,99.89s23.06-46,23.06-68.64c0-19.56-14.74-37.49-37.13-37.49s-58.69,26.43-66.2,54.4h30c-16,45.51-26.76,94.54,14.56,94.54,28.53,0,54.75-29.27,67.68-49.95h1.79l-5.16,25C631,457.78,639.73,470,661.49,470c36.29,0,71.37-64.28,71.37-64.28Z"/><path class="cls-1" d="M538.39,165.9c-41.13,0-80.95,33.34-88.94,74.47s18.88,74.47,60,74.47,80.95-33.34,88.94-74.47S579.52,165.9,538.39,165.9Zm-3.52,73.42c-9.39,32.73-23.35,59.26-29,59.26s-4.38-26.53,5-59.26,23.35-59.25,29-59.25S544.26,206.6,534.87,239.32Z"/><path class="cls-1" d="M479.64,413.91c-12.37-.53-22.57-5-26.58-15.63,30.87,2,71.4-1.62,71.4-34.18,0-31-25.12-42.12-51.83-42.12-41.13,0-80.95,33.34-88.94,74.47s18.87,74.47,60,74.47c51.12,0,84.58-33,84.58-71.35C519.5,409.68,498.79,414.73,479.64,413.91Zm-1.95-77.76c5.21,0,9.07,10.47,8.7,24.45-.33,12.49-9.32,21.53-27.56,21.53-2.35,0-4.79-.12-7.27-.32.07-.71.11-1.38.22-2.11C455.28,355.25,473,336.15,477.69,336.15Z"/><circle class="cls-1" cx="112.49" cy="106.22" r="43.8" transform="translate(-42.16 110.65) rotate(-45)"/><path class="cls-1" d="M465.76,194.45,472.52,173H369.37l0,.09c-44.25,1.94-56.7,53.42-56.7,53.42h36.63L300,398.58c-34.59,117.66-53.87,148.15-109.36,148.15v-3.56a43.81,43.81,0,1,0-43.81-43.81c0,31.76,19.5,64.79,71.15,64.79,70.51,0,114.9-33.45,155.73-165.57L423,226.51A45.9,45.9,0,0,0,465.76,194.45Z"/><path class="cls-1" d="M550.23,31.92v3.57A43.8,43.8,0,1,0,594,79.29c0-31.76-19.49-64.78-71.15-64.78-66.2,0-109.37,29.48-148.18,142.4h73.14C478.29,58.6,498.57,31.92,550.23,31.92Z"/><path class="cls-1" d="M1115.7,346.31c0-6.66,4.16-10.16,10.87-10.16,25.11,0,37.28,42.92,37.28,42.92s26.7-5,26.7-24.81S1164.72,322,1136.94,322c-39.69,0-70.75,14.17-70.75,42.27,0,6.9,3.3,13.47,8.45,19.75a218.05,218.05,0,0,1-19.58,16c0-.14,0-.28,0-.41-.38.44-.81.85-1.23,1.27a97.1,97.1,0,0,1-14,8.29c-9.73,3.62-21.85,5.28-33.42,4.78-12.38-.53-22.57-5-26.59-15.63,30.88,2,71.41-1.62,71.41-34.18,0-31-25.13-42.12-51.84-42.12-41.12,0-80.94,33.34-88.93,74.47a72.88,72.88,0,0,0-1.22,19.17H888c16-45.51,26.76-94.54-14.56-94.54-28.53,0-54.75,29.27-67.69,49.95H804l5.15-25c3.17-16.32-5.55-28.56-27.31-28.56-36.29,0-71.37,64.28-71.37,64.28h36.35l-31,82H786c18.09-62.87,42.86-99.89,51.78-99.89s-23.06,46-23.06,68.64c0,19.56,14.73,37.49,37.13,37.49,18.58,0,46.71-18.2,60.05-40.37,7.46,24.46,29.45,41.27,58.64,41.27,37,0,64.77-17.33,77.26-41.45,14.42,24.22,43.89,41.45,74.67,41.45,42.25,0,67-14.24,67-46.78C1189.41,387.78,1115.7,360.88,1115.7,346.31Zm-111.21-10.16c5.21,0,9.07,10.47,8.7,24.45-.33,12.49-9.31,21.53-27.56,21.53-2.34,0-4.79-.12-7.27-.32.08-.71.12-1.38.22-2.11C982.08,355.25,999.79,336.15,1004.49,336.15ZM1136.12,444c-.75,5.67-4.32,12.65-11.52,12.65-16.68,0-27.07-31.81-32.61-56.4C1112.62,416.53,1137.85,430.81,1136.12,444Z"/></g></g><g id="Barre"><path class="cls-1" d="M1174.33,240l12.43-56.54H683.21a67.21,67.21,0,0,0-65.54,52.31l-13,57h504A67.22,67.22,0,0,0,1174.33,240Z"/></g></g></g><g id="Textes"><g id="Pays_de_la_Loire" data-name="Pays de la Loire"><path class="cls-2" d="M714.43,243.47l-2.62,15.09h-8.46l7.43-42.92,13.76,0a11.34,11.34,0,0,1,8.83,4q3.2,3.84,2.7,9.91a15,15,0,0,1-4.78,10.1,15.31,15.31,0,0,1-10.67,3.79Zm1.24-7.22,5.45.06a5.85,5.85,0,0,0,4.9-2.44,10.14,10.14,0,0,0,1.65-6.38,5.54,5.54,0,0,0-1-3.24,3.29,3.29,0,0,0-2.53-1.33l-6.16,0Z"/><path class="cls-2" d="M752,258.56a10.83,10.83,0,0,1-.24-2.48,8.06,8.06,0,0,1-6.19,3.1,7.54,7.54,0,0,1-5.91-2.71,9.31,9.31,0,0,1-2-6.61,10.27,10.27,0,0,1,3.95-7.94q3.69-2.88,9.91-2.87h2.38l.39-2.6.09-1.32c0-1.71-.69-2.57-2.07-2.57q-2.85-.09-3.47,3.66l-8.11.06a10,10,0,0,1,3.77-7.42,12.83,12.83,0,0,1,8.55-2.81c3.16.08,5.59,1.07,7.27,3a9.55,9.55,0,0,1,2,7.59l-2.59,16.21-.12,1.56A9.61,9.61,0,0,0,760,258l0,.53Zm-4.19-5.9a5.29,5.29,0,0,0,4-1.88l1.45-6.75H751.5a5.52,5.52,0,0,0-3.81,1.59,6.28,6.28,0,0,0-1.73,3.71l0,1.12a2.51,2.51,0,0,0,.48,1.57A1.76,1.76,0,0,0,747.81,252.66Z"/><path class="cls-2" d="M777.09,244.53l7.23-17.86h8.9l-16.45,36.69a15.67,15.67,0,0,1-4.18,6.24,8.58,8.58,0,0,1-5.52,1.93,15.29,15.29,0,0,1-3.59-.62l.7-6.52.89.06a5,5,0,0,0,4.89-3l1.36-3L768,226.67h8.51Z"/><path class="cls-2" d="M807.23,249.8q.3-2.06-3.21-3.68a25.61,25.61,0,0,1-5.26-3.05,9,9,0,0,1-2.57-3.17,8.41,8.41,0,0,1-.72-4A9.59,9.59,0,0,1,799,228.8a12.07,12.07,0,0,1,8.18-2.75,10.66,10.66,0,0,1,7.53,2.84,9.49,9.49,0,0,1,2.7,7.21H809.3a4.87,4.87,0,0,0-.55-2.94,2.32,2.32,0,0,0-2-.86,3.35,3.35,0,0,0-2.4.95,4.16,4.16,0,0,0-1.23,2.31q-.35,1.91,3,3.41a35.68,35.68,0,0,1,4.82,2.49,8.47,8.47,0,0,1,4.09,8,9.39,9.39,0,0,1-1.84,5.2,10.54,10.54,0,0,1-4.45,3.41,14.38,14.38,0,0,1-6,1.09,10.74,10.74,0,0,1-7.6-3,9.82,9.82,0,0,1-2.89-7.45l7.75,0a4.92,4.92,0,0,0,.74,3.31,3.14,3.14,0,0,0,2.56,1,4.23,4.23,0,0,0,2.61-.81A3.58,3.58,0,0,0,807.23,249.8Z"/><path class="cls-2" d="M847.91,226.05a7,7,0,0,1,5.68,3.27l3-16h8.2L857,258.56h-7.31l.45-3.24q-3.08,3.89-6.75,3.89a7.09,7.09,0,0,1-6.18-3.16c-1.38-2.06-2-5-2-8.9l.09-1.88q.68-9.74,3.85-14.55A9.64,9.64,0,0,1,847.91,226.05Zm-4.63,21a7.12,7.12,0,0,0,.6,3.88,2.49,2.49,0,0,0,2.32,1.31,5.17,5.17,0,0,0,4-2.21l2.56-14.65a3.62,3.62,0,0,0-3.15-2.33q-4.36-.22-5.49,6.31l-.32,2.24Z"/><path class="cls-2" d="M876.83,259.15a11.4,11.4,0,0,1-6.55-1.89,10.29,10.29,0,0,1-3.89-5.2,17,17,0,0,1-.73-7.62l.27-2.18q1-7.94,4.82-12.13a12.25,12.25,0,0,1,9.8-4,9.42,9.42,0,0,1,6.85,2.72,11.67,11.67,0,0,1,2.9,7.3,25.65,25.65,0,0,1-.11,5.48l-.56,3.83H873.71a14.57,14.57,0,0,0-.09,2.45c.14,2.83,1.52,4.27,4.16,4.33a10.39,10.39,0,0,0,7.13-2.8l2.74,5.07a10.83,10.83,0,0,1-4.52,3.48A15,15,0,0,1,876.83,259.15Zm2.92-26.2q-3.51-.15-4.89,4.48l-.59,2.15,8.11,0a21.59,21.59,0,0,0,.32-2.77Q882.82,233.09,879.75,233Z"/><path class="cls-2" d="M915.56,258.56H907.4l7.84-45.27h8.19Z"/><path class="cls-2" d="M937.86,258.56a10.83,10.83,0,0,1-.24-2.48,8,8,0,0,1-6.19,3.1,7.54,7.54,0,0,1-5.91-2.71,9.26,9.26,0,0,1-2-6.61,10.23,10.23,0,0,1,3.94-7.94q3.69-2.88,9.91-2.87h2.39l.38-2.6.09-1.32c0-1.71-.69-2.57-2.07-2.57q-2.85-.09-3.47,3.66l-8.11.06a10,10,0,0,1,3.77-7.42,12.83,12.83,0,0,1,8.55-2.81c3.16.08,5.59,1.07,7.27,3a9.55,9.55,0,0,1,2,7.59l-2.59,16.21-.12,1.56a9.41,9.41,0,0,0,.42,3.63l0,.53Zm-4.19-5.9a5.29,5.29,0,0,0,4-1.88l1.45-6.75h-1.77a5.5,5.5,0,0,0-3.8,1.59,6.24,6.24,0,0,0-1.74,3.71l0,1.12a2.51,2.51,0,0,0,.48,1.57A1.76,1.76,0,0,0,933.67,252.66Z"/><path class="cls-2" d="M975.65,251.37h14.76l-1.27,7.19H966l7.43-42.92h8.46Z"/><path class="cls-2" d="M1011.26,226.08a9.77,9.77,0,0,1,7.55,3.27,13.62,13.62,0,0,1,3,8.46v2.09q-.39,9.25-4.44,14.34a12.4,12.4,0,0,1-10.57,4.91,10.17,10.17,0,0,1-6.27-2,10.82,10.82,0,0,1-3.56-5.44,20.16,20.16,0,0,1-.6-8l.18-1.59q.86-7.52,4.8-11.83A12.45,12.45,0,0,1,1011.26,226.08ZM1004.37,247q0,5.09,3.12,5.27,4.25.24,5.51-6.48l.33-2.13c.27-2.83.41-4.64.41-5.45q0-5.07-3.21-5.27a4.17,4.17,0,0,0-3.83,2.15,14.3,14.3,0,0,0-1.92,6.56C1004.51,244.51,1004.37,246.3,1004.37,247Z"/><path class="cls-2" d="M1033,258.56h-8.16l5.54-31.89h8.16Zm-1.56-40a4.49,4.49,0,0,1,1.28-3.31,4.25,4.25,0,0,1,3.14-1.29,4.07,4.07,0,0,1,3.11,1.2,4.18,4.18,0,0,1,1.28,3.11,4.53,4.53,0,0,1-1.28,3.34,4.25,4.25,0,0,1-3.14,1.28,4,4,0,0,1-3.14-1.19A4.23,4.23,0,0,1,1031.47,218.56Z"/><path class="cls-2" d="M1059.84,234.68l-2.6-.29a5.88,5.88,0,0,0-5.27,3.09l-3.69,21.08h-8.16l5.54-31.89,7.63,0-.64,3.51a10.48,10.48,0,0,1,2.83-3.23,5.21,5.21,0,0,1,3-.93,9.94,9.94,0,0,1,2.51.44Z"/><path class="cls-2" d="M1073.06,259.15a11.43,11.43,0,0,1-6.56-1.89,10.29,10.29,0,0,1-3.89-5.2,17,17,0,0,1-.73-7.62l.27-2.18q1-7.94,4.82-12.13a12.25,12.25,0,0,1,9.8-4,9.42,9.42,0,0,1,6.85,2.72,11.74,11.74,0,0,1,2.91,7.3,26.31,26.31,0,0,1-.12,5.48l-.56,3.83h-15.92a14.57,14.57,0,0,0-.09,2.45q.21,4.24,4.16,4.33a10.37,10.37,0,0,0,7.13-2.8l2.74,5.07a10.83,10.83,0,0,1-4.52,3.48A15,15,0,0,1,1073.06,259.15ZM1076,233q-3.49-.15-4.89,4.48l-.59,2.15,8.11,0a21.59,21.59,0,0,0,.32-2.77Q1079,233.09,1076,233Z"/></g></g></svg>